<svg width="32" height="32" viewBox="0 0 32 32" fill="none" xmlns="http://www.w3.org/2000/svg">
<g clip-path="url(#clip0_358_6552)">
<rect width="32" height="32" rx="16" fill="#F5F5F5"/>
<path d="M11.7976 23.221C11.414 23.4971 10.8789 23.2228 10.8789 22.7502V11.1533C10.8789 9.76527 12.0042 8.64001 13.3922 8.64001H19.191C20.579 8.64001 21.7043 9.76527 21.7043 11.1533V22.7502C21.7043 23.2228 21.1692 23.4971 20.7856 23.221L16.2916 19.9878L11.7976 23.221ZM20.5443 11.1533C20.5443 10.4059 19.9384 9.80001 19.191 9.80001H13.3922C12.6448 9.80001 12.0389 10.4059 12.0389 11.1533V21.6184L15.9529 18.8024C16.1553 18.6568 16.428 18.6568 16.6303 18.8024L20.5443 21.6184V11.1533Z" fill="#1A1A1A"/>
</g>
<defs>
<clipPath id="clip0_358_6552">
<rect width="32" height="32" fill="white"/>
</clipPath>
</defs>
</svg>
