<svg width="142" height="44" viewBox="0 0 142 44" fill="none" xmlns="http://www.w3.org/2000/svg">
<rect width="142" height="44" rx="5" fill="#F0FBFC"/>
<path d="M23.5489 32V22.8777H26.6096L27.0688 19.3216H23.5489V17.0515C23.5489 16.0222 23.8335 15.3208 25.3112 15.3208L27.1927 15.32V12.1392C26.8673 12.0969 25.7504 12 24.4504 12C21.7358 12 19.8773 13.657 19.8773 16.6993V19.3216H16.8073V22.8777H19.8773V32H23.5489Z" fill="#1877F2"/>
<line opacity="0.15" x1="42.5" y1="12" x2="42.5" y2="32" stroke="#061C3D"/>
<path d="M53.1186 27V16.8182H59.4325V18.1406H54.6548V21.2429H58.9801V22.5604H54.6548V27H53.1186ZM63.3974 27.169C62.9135 27.169 62.476 27.0795 62.0849 26.9006C61.6938 26.7183 61.3839 26.4548 61.1552 26.1101C60.9298 25.7654 60.8171 25.3428 60.8171 24.8423C60.8171 24.4115 60.9 24.0568 61.0657 23.7784C61.2314 23.5 61.4551 23.2796 61.7369 23.1172C62.0186 22.9548 62.3335 22.8321 62.6815 22.7493C63.0295 22.6664 63.3841 22.6035 63.7454 22.5604C64.2028 22.5073 64.574 22.4643 64.859 22.4311C65.1441 22.3946 65.3512 22.3366 65.4805 22.2571C65.6097 22.1776 65.6744 22.0483 65.6744 21.8693V21.8345C65.6744 21.4003 65.5517 21.0639 65.3065 20.8253C65.0645 20.5866 64.7032 20.4673 64.2227 20.4673C63.7222 20.4673 63.3278 20.5784 63.0394 20.8004C62.7544 21.0192 62.5572 21.2628 62.4478 21.5312L61.0508 21.2131C61.2165 20.7491 61.4585 20.3745 61.7766 20.0895C62.0981 19.8011 62.4677 19.5923 62.8853 19.4631C63.3029 19.3305 63.7421 19.2642 64.2028 19.2642C64.5077 19.2642 64.8308 19.3007 65.1722 19.3736C65.5169 19.4432 65.8384 19.5724 66.1367 19.7614C66.4383 19.9503 66.6853 20.2204 66.8775 20.5717C67.0697 20.9197 67.1658 21.3722 67.1658 21.929V27H65.7141V25.956H65.6545C65.5584 26.1482 65.4142 26.3371 65.2219 26.5227C65.0297 26.7083 64.7828 26.8625 64.4812 26.9851C64.1796 27.1077 63.8183 27.169 63.3974 27.169ZM63.7205 25.9759C64.1315 25.9759 64.4828 25.8946 64.7745 25.7322C65.0695 25.5698 65.2932 25.3577 65.4457 25.0959C65.6014 24.8307 65.6793 24.5473 65.6793 24.2457V23.2614C65.6263 23.3144 65.5236 23.3641 65.3711 23.4105C65.2219 23.4536 65.0513 23.4917 64.859 23.5249C64.6668 23.5547 64.4795 23.5829 64.2972 23.6094C64.1149 23.6326 63.9625 23.6525 63.8398 23.669C63.5515 23.7055 63.288 23.7668 63.0494 23.853C62.814 23.9392 62.6251 24.0634 62.4826 24.2259C62.3434 24.3849 62.2738 24.5971 62.2738 24.8622C62.2738 25.2301 62.4097 25.5085 62.6815 25.6974C62.9532 25.883 63.2996 25.9759 63.7205 25.9759ZM72.3624 27.1541C71.6233 27.1541 70.9869 26.9867 70.4533 26.652C69.923 26.3139 69.5153 25.8482 69.2303 25.255C68.9453 24.6617 68.8027 23.9822 68.8027 23.2166C68.8027 22.4411 68.9486 21.7566 69.2402 21.1634C69.5319 20.5668 69.9429 20.1011 70.4732 19.7663C71.0035 19.4316 71.6283 19.2642 72.3475 19.2642C72.9275 19.2642 73.4445 19.3719 73.8986 19.5874C74.3527 19.7995 74.7189 20.0978 74.9973 20.4822C75.2791 20.8667 75.4464 21.3158 75.4995 21.8295H74.0527C73.9732 21.4716 73.7909 21.1634 73.5059 20.9048C73.2241 20.6463 72.8463 20.517 72.3723 20.517C71.958 20.517 71.5951 20.6264 71.2836 20.8452C70.9753 21.0606 70.735 21.3688 70.5627 21.7699C70.3903 22.1676 70.3042 22.6383 70.3042 23.1818C70.3042 23.7386 70.3887 24.2192 70.5577 24.6236C70.7267 25.0279 70.9654 25.3411 71.2736 25.5632C71.5852 25.7853 71.9514 25.8963 72.3723 25.8963C72.6541 25.8963 72.9093 25.8449 73.138 25.7422C73.37 25.6361 73.5639 25.4853 73.7196 25.2898C73.8787 25.0942 73.9898 24.8589 74.0527 24.5838H75.4995C75.4464 25.0777 75.2857 25.5185 75.0172 25.9062C74.7488 26.294 74.3891 26.599 73.9384 26.821C73.4909 27.0431 72.9656 27.1541 72.3624 27.1541ZM80.3803 27.1541C79.628 27.1541 78.98 26.9934 78.4364 26.6719C77.8962 26.3471 77.4786 25.8913 77.1836 25.3047C76.8919 24.7147 76.7461 24.0237 76.7461 23.2315C76.7461 22.4493 76.8919 21.7599 77.1836 21.1634C77.4786 20.5668 77.8896 20.1011 78.4165 19.7663C78.9469 19.4316 79.5666 19.2642 80.2759 19.2642C80.7068 19.2642 81.1244 19.3355 81.5288 19.478C81.9331 19.6205 82.296 19.8442 82.6175 20.1491C82.939 20.4541 83.1926 20.8501 83.3782 21.3374C83.5638 21.8213 83.6566 22.4096 83.6566 23.1023V23.6293H77.5863V22.5156H82.1999C82.1999 22.1245 82.1204 21.7782 81.9613 21.4766C81.8022 21.1716 81.5785 20.9313 81.2901 20.7557C81.0051 20.58 80.6703 20.4922 80.2859 20.4922C79.8683 20.4922 79.5037 20.5949 79.1921 20.8004C78.8839 21.0026 78.6452 21.2678 78.4762 21.5959C78.3105 21.9207 78.2276 22.2737 78.2276 22.6548V23.5249C78.2276 24.0353 78.3171 24.4695 78.4961 24.8274C78.6784 25.1854 78.9319 25.4588 79.2567 25.6477C79.5816 25.8333 79.9611 25.9261 80.3952 25.9261C80.677 25.9261 80.9338 25.8864 81.1658 25.8068C81.3978 25.724 81.5984 25.6013 81.7674 25.4389C81.9364 25.2765 82.0657 25.076 82.1552 24.8374L83.5621 25.0909C83.4495 25.5052 83.2473 25.8681 82.9556 26.1797C82.6673 26.4879 82.3043 26.7282 81.8668 26.9006C81.4326 27.0696 80.9371 27.1541 80.3803 27.1541ZM85.4252 27V16.8182H86.9118V20.6016H87.0012C87.0874 20.4425 87.2117 20.2585 87.3741 20.0497C87.5365 19.8409 87.7619 19.6586 88.0502 19.5028C88.3386 19.3438 88.7198 19.2642 89.1937 19.2642C89.8102 19.2642 90.3604 19.42 90.8443 19.7315C91.3282 20.0431 91.7077 20.4922 91.9828 21.0788C92.2612 21.6655 92.4004 22.3714 92.4004 23.1967C92.4004 24.022 92.2628 24.7296 91.9877 25.3196C91.7127 25.9062 91.3348 26.3587 90.8542 26.6768C90.3736 26.9917 89.8251 27.1491 89.2086 27.1491C88.7446 27.1491 88.3651 27.0713 88.0701 26.9155C87.7785 26.7597 87.5498 26.5774 87.3841 26.3686C87.2183 26.1598 87.0907 25.9742 87.0012 25.8118H86.877V27H85.4252ZM86.8819 23.1818C86.8819 23.7187 86.9598 24.1894 87.1156 24.5938C87.2714 24.9981 87.4967 25.3146 87.7917 25.5433C88.0867 25.7687 88.448 25.8814 88.8755 25.8814C89.3197 25.8814 89.6909 25.7637 89.9892 25.5284C90.2875 25.2898 90.5128 24.9666 90.6653 24.5589C90.8211 24.1513 90.899 23.6922 90.899 23.1818C90.899 22.678 90.8227 22.2256 90.6703 21.8246C90.5211 21.4235 90.2958 21.107 89.9941 20.875C89.6958 20.643 89.323 20.527 88.8755 20.527C88.4447 20.527 88.0801 20.638 87.7818 20.8601C87.4868 21.0821 87.2631 21.392 87.1106 21.7898C86.9582 22.1875 86.8819 22.6515 86.8819 23.1818ZM97.2862 27.1541C96.5703 27.1541 95.9455 26.9901 95.4119 26.6619C94.8783 26.3338 94.464 25.8748 94.169 25.2848C93.8741 24.6948 93.7266 24.0054 93.7266 23.2166C93.7266 22.4245 93.8741 21.7318 94.169 21.1385C94.464 20.5452 94.8783 20.0845 95.4119 19.7564C95.9455 19.4283 96.5703 19.2642 97.2862 19.2642C98.0021 19.2642 98.6269 19.4283 99.1605 19.7564C99.6941 20.0845 100.108 20.5452 100.403 21.1385C100.698 21.7318 100.846 22.4245 100.846 23.2166C100.846 24.0054 100.698 24.6948 100.403 25.2848C100.108 25.8748 99.6941 26.3338 99.1605 26.6619C98.6269 26.9901 98.0021 27.1541 97.2862 27.1541ZM97.2912 25.9062C97.7552 25.9062 98.1397 25.7836 98.4446 25.5384C98.7495 25.2931 98.9749 24.9666 99.1207 24.5589C99.2699 24.1513 99.3445 23.7022 99.3445 23.2116C99.3445 22.7244 99.2699 22.277 99.1207 21.8693C98.9749 21.4583 98.7495 21.1286 98.4446 20.88C98.1397 20.6314 97.7552 20.5071 97.2912 20.5071C96.8239 20.5071 96.4361 20.6314 96.1278 20.88C95.8229 21.1286 95.5959 21.4583 95.4467 21.8693C95.3009 22.277 95.228 22.7244 95.228 23.2116C95.228 23.7022 95.3009 24.1513 95.4467 24.5589C95.5959 24.9666 95.8229 25.2931 96.1278 25.5384C96.4361 25.7836 96.8239 25.9062 97.2912 25.9062ZM105.722 27.1541C105.006 27.1541 104.381 26.9901 103.847 26.6619C103.314 26.3338 102.9 25.8748 102.605 25.2848C102.31 24.6948 102.162 24.0054 102.162 23.2166C102.162 22.4245 102.31 21.7318 102.605 21.1385C102.9 20.5452 103.314 20.0845 103.847 19.7564C104.381 19.4283 105.006 19.2642 105.722 19.2642C106.438 19.2642 107.062 19.4283 107.596 19.7564C108.13 20.0845 108.544 20.5452 108.839 21.1385C109.134 21.7318 109.281 22.4245 109.281 23.2166C109.281 24.0054 109.134 24.6948 108.839 25.2848C108.544 25.8748 108.13 26.3338 107.596 26.6619C107.062 26.9901 106.438 27.1541 105.722 27.1541ZM105.727 25.9062C106.191 25.9062 106.575 25.7836 106.88 25.5384C107.185 25.2931 107.41 24.9666 107.556 24.5589C107.705 24.1513 107.78 23.7022 107.78 23.2116C107.78 22.7244 107.705 22.277 107.556 21.8693C107.41 21.4583 107.185 21.1286 106.88 20.88C106.575 20.6314 106.191 20.5071 105.727 20.5071C105.259 20.5071 104.872 20.6314 104.563 20.88C104.258 21.1286 104.031 21.4583 103.882 21.8693C103.736 22.277 103.664 22.7244 103.664 23.2116C103.664 23.7022 103.736 24.1513 103.882 24.5589C104.031 24.9666 104.258 25.2931 104.563 25.5384C104.872 25.7836 105.259 25.9062 105.727 25.9062ZM112.308 24.4098L112.298 22.5952H112.556L115.599 19.3636H117.379L113.909 23.0426H113.675L112.308 24.4098ZM110.941 27V16.8182H112.427V27H110.941ZM115.763 27L113.029 23.3707L114.053 22.3317L117.588 27H115.763Z" fill="#061C3D"/>
</svg>
