<svg width="30"
     height="40"
     viewBox="0 0 30 40"
     fill="none"
     xmlns="http://www.w3.org/2000/svg">
    <mask id="mask0_573_2382"
          style="mask-type:luminance"
          maskUnits="userSpaceOnUse"
          x="26"
          y="36"
          width="4"
          height="4">
        <path d="M30 36.3501H26.3723V39.9773H30V36.3501Z"
              fill="white" />
    </mask>
    <g mask="url(#mask0_573_2382)">
        <path d="M28.2426 38.215C28.3867 38.215 28.4979 38.1833 28.5764 38.1199C28.6555 38.057 28.6947 37.9688 28.6947 37.8559C28.6947 37.7425 28.6555 37.6549 28.5764 37.5936C28.4979 37.5317 28.3867 37.5011 28.2426 37.5011H27.8625V38.215H28.2426ZM29.0157 38.2414C28.9458 38.3468 28.8458 38.4279 28.7151 38.4822L29.1673 39.1757H28.7254L28.3248 38.5591H28.2684H27.8679V39.1757H27.4254V37.1516H28.2684C28.5318 37.1516 28.7404 37.2151 28.8931 37.342C29.0447 37.4683 29.121 37.6403 29.121 37.8559C29.121 38.0059 29.0856 38.1349 29.0157 38.2414ZM28.9538 39.4892C29.1855 39.3521 29.3678 39.1671 29.5017 38.9317C29.635 38.6967 29.7016 38.4376 29.7016 38.1537C29.7016 37.8688 29.6371 37.6113 29.5065 37.3802C29.3764 37.1495 29.1963 36.9667 28.9673 36.8334C28.7377 36.7001 28.4786 36.6329 28.1915 36.6329C27.9034 36.6329 27.6431 36.7006 27.4104 36.8361C27.1776 36.9716 26.9948 37.1554 26.8636 37.3882C26.7314 37.621 26.6653 37.8796 26.6653 38.1634C26.6653 38.4484 26.7314 38.7064 26.8636 38.9397C26.9948 39.1725 27.1765 39.3564 27.4077 39.4919C27.6389 39.6273 27.8969 39.6951 28.1808 39.6951C28.4652 39.6951 28.7237 39.6263 28.9538 39.4892ZM29.1135 36.5866C29.3893 36.7442 29.6054 36.9608 29.7635 37.2366C29.921 37.5119 30 37.8183 30 38.1537C30 38.4898 29.9194 38.7962 29.7581 39.0763C29.5973 39.3548 29.378 39.5752 29.1006 39.7354C28.8232 39.8967 28.5168 39.9773 28.1808 39.9773C27.8453 39.9773 27.5394 39.8967 27.2642 39.7354C26.9884 39.5752 26.7706 39.3558 26.6115 39.0779C26.4524 38.801 26.3723 38.4957 26.3723 38.1634C26.3723 37.8317 26.4524 37.5269 26.6115 37.249C26.7706 36.9716 26.9894 36.7527 27.2668 36.5915C27.5442 36.4313 27.8523 36.3501 28.1915 36.3501C28.5307 36.3501 28.8372 36.4291 29.1135 36.5866Z"
              fill="#00ABC8" />
    </g>
    <g clip-path="url(#clip0_573_2382)">
        <mask id="mask1_573_2382"
              style="mask-type:luminance"
              maskUnits="userSpaceOnUse"
              x="0"
              y="0"
              width="30"
              height="35">
            <path d="M30 0H0.977905V34.4564H30V0Z"
                  fill="white" />
        </mask>
        <g mask="url(#mask1_573_2382)">
            <path d="M23.1164 18.769C23.1164 19.8737 22.2211 20.769 21.1167 20.769C20.0119 20.769 19.1163 19.8737 19.1163 18.769V8.50702C19.1163 7.40229 20.0119 6.50664 21.1167 6.50664C22.2211 6.50664 23.1164 7.40229 23.1164 8.50702V18.769ZM16.7481 18.769C16.7481 19.8737 15.8528 20.769 14.7481 20.769C13.6437 20.769 12.7481 19.8737 12.7481 18.769V13.943C12.7481 12.8382 13.6437 11.9433 14.7481 11.9433C15.8528 11.9433 16.7481 12.8382 16.7481 13.943V18.769ZM8.37986 20.769C7.27546 20.769 6.37983 19.8737 6.37983 18.769C6.37983 17.6646 7.27546 16.7693 8.37986 16.7693C9.48426 16.7693 10.3796 17.6646 10.3796 18.769C10.3796 19.8737 9.48426 20.769 8.37986 20.769ZM28.5729 0H2.40496C1.61666 0 0.977905 0.639069 0.977905 1.42704V25.3708C0.977905 26.1591 1.61699 26.7979 2.40529 26.7979H20.3712C21.0303 26.7979 21.6559 27.0875 22.083 27.5895L27.5634 34.0356C28.4627 34.9345 30 34.298 30 33.0261V1.42704C30 0.639069 29.3609 0 28.5729 0Z"
                  fill="#00ABC8" />
        </g>
    </g>
    <defs>
        <clipPath id="clip0_573_2382">
            <rect width="29.0221"
                  height="34.4564"
                  fill="white"
                  transform="translate(0.977905)" />
        </clipPath>
    </defs>
</svg>
