<svg width="40" height="40" viewBox="0 0 40 40" fill="none" xmlns="http://www.w3.org/2000/svg">
<rect x="0.5" y="0.5" width="39" height="39" rx="7.5" stroke="#00ABC8"/>
<g clip-path="url(#clip0_291_19239)">
<path d="M20 28.8999L24.95 23.9499C25.9289 22.9709 26.5955 21.7236 26.8656 20.3658C27.1356 19.0079 26.9969 17.6005 26.4671 16.3215C25.9373 15.0424 25.04 13.9492 23.8889 13.1801C22.7378 12.411 21.3844 12.0004 20 12.0004C18.6156 12.0004 17.2622 12.411 16.1111 13.1801C14.96 13.9492 14.0628 15.0424 13.5329 16.3215C13.0031 17.6005 12.8644 19.0079 13.1345 20.3658C13.4045 21.7236 14.0711 22.9709 15.05 23.9499L20 28.8999ZM20 31.7279L13.636 25.3639C12.3773 24.1052 11.5202 22.5016 11.1729 20.7558C10.8257 19.0099 11.0039 17.2004 11.6851 15.5558C12.3663 13.9113 13.5198 12.5057 14.9999 11.5168C16.4799 10.5278 18.22 10 20 10C21.78 10 23.5201 10.5278 25.0001 11.5168C26.4802 12.5057 27.6337 13.9113 28.3149 15.5558C28.9961 17.2004 29.1743 19.0099 28.8271 20.7558C28.4798 22.5016 27.6227 24.1052 26.364 25.3639L20 31.7279ZM20 20.9999C20.5304 20.9999 21.0391 20.7892 21.4142 20.4141C21.7893 20.0391 22 19.5304 22 18.9999C22 18.4695 21.7893 17.9608 21.4142 17.5857C21.0391 17.2106 20.5304 16.9999 20 16.9999C19.4696 16.9999 18.9609 17.2106 18.5858 17.5857C18.2107 17.9608 18 18.4695 18 18.9999C18 19.5304 18.2107 20.0391 18.5858 20.4141C18.9609 20.7892 19.4696 20.9999 20 20.9999ZM20 22.9999C18.9391 22.9999 17.9217 22.5785 17.1716 21.8283C16.4214 21.0782 16 20.0608 16 18.9999C16 17.9391 16.4214 16.9216 17.1716 16.1715C17.9217 15.4213 18.9391 14.9999 20 14.9999C21.0609 14.9999 22.0783 15.4213 22.8284 16.1715C23.5786 16.9216 24 17.9391 24 18.9999C24 20.0608 23.5786 21.0782 22.8284 21.8283C22.0783 22.5785 21.0609 22.9999 20 22.9999Z" fill="#00ABC8"/>
</g>
<defs>
<clipPath id="clip0_291_19239">
<rect width="24" height="24" fill="white" transform="translate(8 8)"/>
</clipPath>
</defs>
</svg>
