<svg width="40" height="40" viewBox="0 0 40 40" fill="none" xmlns="http://www.w3.org/2000/svg">
<rect x="0.5" y="0.5" width="39" height="39" rx="7.5" stroke="#00ABC8"/>
<g clip-path="url(#clip0_291_19231)">
<path d="M17.366 18.682C18.3043 20.3305 19.6695 21.6957 21.318 22.634L22.202 21.396C22.3442 21.1969 22.5543 21.0569 22.7928 21.0023C23.0313 20.9478 23.2814 20.9825 23.496 21.1C24.9103 21.8729 26.4722 22.3378 28.079 22.464C28.3298 22.4839 28.5638 22.5975 28.7345 22.7823C28.9052 22.9671 29 23.2094 29 23.461V27.923C29.0001 28.1706 28.9083 28.4094 28.7424 28.5932C28.5765 28.777 28.3483 28.8927 28.102 28.918C27.572 28.973 27.038 29 26.5 29C17.94 29 11 22.06 11 13.5C11 12.962 11.027 12.428 11.082 11.898C11.1073 11.6517 11.223 11.4235 11.4068 11.2576C11.5906 11.0917 11.8294 10.9999 12.077 11H16.539C16.7906 11 17.0329 11.0948 17.2177 11.2655C17.4025 11.4361 17.5161 11.6702 17.536 11.921C17.6622 13.5278 18.1271 15.0897 18.9 16.504C19.0175 16.7186 19.0522 16.9687 18.9977 17.2072C18.9431 17.4456 18.8031 17.6558 18.604 17.798L17.366 18.682ZM14.844 18.025L16.744 16.668C16.2048 15.5041 15.8354 14.2688 15.647 13H13.01C13.004 13.166 13.001 13.333 13.001 13.5C13 20.956 19.044 27 26.5 27C26.667 27 26.834 26.997 27 26.99V24.353C25.7312 24.1646 24.4959 23.7952 23.332 23.256L21.975 25.156C21.4287 24.9437 20.898 24.6931 20.387 24.406L20.329 24.373C18.3676 23.2567 16.7433 21.6324 15.627 19.671L15.594 19.613C15.3069 19.102 15.0563 18.5713 14.844 18.025Z" fill="#00ABC8"/>
</g>
<defs>
<clipPath id="clip0_291_19231">
<rect width="24" height="24" fill="white" transform="translate(8 8)"/>
</clipPath>
</defs>
</svg>
