<svg width="44" height="44" viewBox="0 0 44 44" fill="none" xmlns="http://www.w3.org/2000/svg">
<rect width="44" height="44" rx="5" fill="white" fill-opacity="0.08"/>
<g clip-path="url(#clip0_358_6289)">
<path d="M14.5003 14.5H29.5003C29.7213 14.5 29.9333 14.5878 30.0896 14.7441C30.2459 14.9004 30.3337 15.1123 30.3337 15.3333V28.6667C30.3337 28.8877 30.2459 29.0996 30.0896 29.2559C29.9333 29.4122 29.7213 29.5 29.5003 29.5H14.5003C14.2793 29.5 14.0674 29.4122 13.9111 29.2559C13.7548 29.0996 13.667 28.8877 13.667 28.6667V15.3333C13.667 15.1123 13.7548 14.9004 13.9111 14.7441C14.0674 14.5878 14.2793 14.5 14.5003 14.5ZM28.667 18.0317L22.0603 23.9483L15.3337 18.0133V27.8333H28.667V18.0317ZM15.7595 16.1667L22.0512 21.7183L28.252 16.1667H15.7595Z" fill="white"/>
</g>
<defs>
<clipPath id="clip0_358_6289">
<rect width="20" height="20" fill="white" transform="translate(12 12)"/>
</clipPath>
</defs>
</svg>
