<svg width="32" height="32" viewBox="0 0 32 32" fill="none" xmlns="http://www.w3.org/2000/svg">
<rect width="32" height="32" rx="16" fill="#F5F5F5"/>
<path d="M10.6 20.32C9.16406 20.32 8 19.1947 8 17.8066V11.2333C8 9.84522 9.16406 8.71997 10.6 8.71997H21.4C22.8359 8.71997 24 9.84522 24 11.2333V17.8066C24 19.1947 22.8359 20.32 21.4 20.32H16.81L12.7989 23.2205C12.3567 23.5403 11.73 23.4529 11.3992 23.0254C11.2699 22.8582 11.2 22.6551 11.2 22.4466L11.1994 20.32H10.6ZM16.4108 19.16H21.4C22.1732 19.16 22.8 18.5541 22.8 17.8066V11.2333C22.8 10.4859 22.1732 9.87997 21.4 9.87997H10.6C9.8268 9.87997 9.2 10.4859 9.2 11.2333V17.8066C9.2 18.5541 9.8268 19.16 10.6 19.16H12.399L12.3992 19.7398L12.3999 22.0604L16.4108 19.16Z" fill="#1A1A1A"/>
</svg>
