<svg width="24" height="25" viewBox="0 0 24 25" fill="none" xmlns="http://www.w3.org/2000/svg">
<path fill-rule="evenodd" clip-rule="evenodd" d="M12 0.5C5.37258 0.5 0 5.87258 0 12.5C0 19.1274 5.37258 24.5 12 24.5C18.6274 24.5 24 19.1274 24 12.5C24 5.87258 18.6274 0.5 12 0.5ZM5.76081 10.4389H8.48027V18.6098H5.76081V10.4389ZM8.65938 7.91135C8.64173 7.1102 8.06883 6.5 7.13852 6.5C6.20821 6.5 5.6 7.1102 5.6 7.91135C5.6 8.6959 6.19023 9.32367 7.10322 9.32367H7.12059C8.06883 9.32367 8.65938 8.6959 8.65938 7.91135ZM15.1566 10.2471C16.9461 10.2471 18.2877 11.4151 18.2877 13.9249L18.2876 18.6098H15.5682V14.2384C15.5682 13.1404 15.1747 12.3911 14.1903 12.3911C13.4389 12.3911 12.9914 12.8962 12.7949 13.3841C12.723 13.5589 12.7053 13.8025 12.7053 14.0467V18.61H9.98555C9.98555 18.61 10.0214 11.2059 9.98555 10.4391H12.7053V11.5965C13.0663 11.0401 13.7127 10.2471 15.1566 10.2471Z" fill="white"/>
</svg>
