<svg width="24" height="25" viewBox="0 0 24 25" fill="none" xmlns="http://www.w3.org/2000/svg">
<path fill-rule="evenodd" clip-rule="evenodd" d="M12 24.5C5.37258 24.5 0 19.1274 0 12.5C0 5.87258 5.37258 0.5 12 0.5C18.6274 0.5 24 5.87258 24 12.5C24 19.1274 18.6274 24.5 12 24.5ZM12.1672 11.8265C13.1498 11.8265 17.9272 9.14 17.9272 9.14L17.9349 8.66C17.9349 8.13008 17.5048 7.7 16.9734 7.7H7.36096C6.83008 7.7 6.4 8.13008 6.4 8.66V9.08768C6.4 9.08768 11.2298 11.8265 12.1672 11.8265ZM6.40768 10.58C6.4072 10.58 11.2298 13.1465 12.1672 13.1465C13.1949 13.1465 17.9272 10.58 17.9272 10.58L17.9349 16.34C17.9349 16.8699 17.5048 17.3 16.9734 17.3H7.36096C6.83056 17.3 6.4 16.8699 6.4 16.34L6.40768 10.58Z" fill="white"/>
</svg>
