<svg width="1440"
     height="618"
     viewBox="0 0 1440 618"
     fill="none"
     xmlns="http://www.w3.org/2000/svg">
    <path d="M-33.6553 0H1461.66C1461.66 0 1703.18 171.061 1461.66 359.196C1332.84 459.535 1284 462.253 1121.31 403.566C958.618 344.879 891.141 510.279 714 510.279C536.859 510.279 462.797 423.811 301.232 446.56C139.667 469.309 95.1583 623.782 -33.6553 523.444C-275.181 335.309 -33.6553 0 -33.6553 0Z"
          fill="#00ABC8" />
    <rect opacity="0.06"
          x="574.141"
          y="282.357"
          width="162.632"
          height="162.632"
          rx="22.7893"
          transform="rotate(120 574.141 282.357)"
          fill="#F7F7F7" />
    <rect opacity="0.06"
          x="414.021"
          y="411.846"
          width="162.632"
          height="162.632"
          rx="22.7893"
          transform="rotate(120 414.021 411.846)"
          fill="#F7F7F7" />
    <rect opacity="0.06"
          x="247.57"
          y="315.745"
          width="162.632"
          height="162.632"
          rx="22.7893"
          transform="rotate(120 247.57 315.745)"
          fill="#F7F7F7" />
    <rect opacity="0.06"
          x="407.691"
          y="186.255"
          width="162.632"
          height="162.632"
          rx="22.7893"
          transform="rotate(120 407.691 186.255)"
          fill="#F7F7F7" />
    <rect opacity="0.06"
          x="1320.14"
          y="277.357"
          width="162.632"
          height="162.632"
          rx="22.7893"
          transform="rotate(120 1320.14 277.357)"
          fill="#F7F7F7" />
    <rect opacity="0.06"
          x="1160.02"
          y="406.846"
          width="162.632"
          height="162.632"
          rx="22.7893"
          transform="rotate(120 1160.02 406.846)"
          fill="#F7F7F7" />
    <rect opacity="0.06"
          x="993.57"
          y="310.745"
          width="162.632"
          height="162.632"
          rx="22.7893"
          transform="rotate(120 993.57 310.745)"
          fill="#F7F7F7" />
    <rect opacity="0.06"
          x="1153.69"
          y="181.255"
          width="162.632"
          height="162.632"
          rx="22.7893"
          transform="rotate(120 1153.69 181.255)"
          fill="#F7F7F7" />
</svg>
