<svg width="25" height="25" viewBox="0 0 25 25" fill="none" xmlns="http://www.w3.org/2000/svg">
<g clip-path="url(#clip0_291_17563)">
<path d="M4.5 22.2197C4.5 20.098 5.34285 18.0632 6.84315 16.5629C8.34344 15.0626 10.3783 14.2197 12.5 14.2197C14.6217 14.2197 16.6566 15.0626 18.1569 16.5629C19.6571 18.0632 20.5 20.098 20.5 22.2197H18.5C18.5 20.6284 17.8679 19.1023 16.7426 17.9771C15.6174 16.8519 14.0913 16.2197 12.5 16.2197C10.9087 16.2197 9.38258 16.8519 8.25736 17.9771C7.13214 19.1023 6.5 20.6284 6.5 22.2197H4.5ZM12.5 13.2197C9.185 13.2197 6.5 10.5347 6.5 7.21973C6.5 3.90473 9.185 1.21973 12.5 1.21973C15.815 1.21973 18.5 3.90473 18.5 7.21973C18.5 10.5347 15.815 13.2197 12.5 13.2197ZM12.5 11.2197C14.71 11.2197 16.5 9.42973 16.5 7.21973C16.5 5.00973 14.71 3.21973 12.5 3.21973C10.29 3.21973 8.5 5.00973 8.5 7.21973C8.5 9.42973 10.29 11.2197 12.5 11.2197Z" fill="#8A8A88"/>
</g>
<defs>
<clipPath id="clip0_291_17563">
<rect width="24" height="24" fill="white" transform="translate(0.5 0.219727)"/>
</clipPath>
</defs>
</svg>
